<?xml version="1.0" encoding="UTF-8"?>
<svg id="Make2D::Hidden::Curves::Default" xmlns="http://www.w3.org/2000/svg" viewBox="0 0 3000 2000">
  <defs>
    <style>
      .cls-1, .cls-2, .cls-3 {
        fill: none;
        stroke-linecap: round;
        stroke-linejoin: round;
        stroke-width: 3px;
      }

      .cls-1, .cls-3 {
        stroke: #000;
      }

      .cls-4 {
        fill: #010101;
      }

      .cls-2 {
        stroke: #333;
      }

      .cls-3 {
        stroke-dasharray: 5.67 5.67;
      }
    </style>
  </defs>
  <g>
    <line class="cls-1" x1="1231.83" y1="1512.71" x2="1231.83" y2="1515"/>
    <line class="cls-1" x1="1261.52" y1="1515.06" x2="1261.53" y2="1513.53"/>
    <line class="cls-1" x1="1232.86" y1="1513.52" x2="1232.86" y2="1515"/>
    <path class="cls-1" d="M1261.52,1515.06c.34,0,.69,0,1.03,0"/>
    <line class="cls-1" x1="1262.55" y1="1515.06" x2="1262.56" y2="1513.03"/>
    <path class="cls-1" d="M1258.11,1513.8c1.19-.02,2.32-.1,3.16-.23.84-.13,1.31-.3,1.31-.5"/>
    <path class="cls-1" d="M1408.07,1488.24c-52.81,21.29-105.11,26.31-160.86,26.31"/>
    <path class="cls-1" d="M1900.35,1229.74c.22,27.71-.81,55.37-3.13,83.17"/>
    <path class="cls-1" d="M630.87,1416.24s-.01-.06-.02-.09c-3.66-16.54-6.63-33.21-9.17-50.18-6.49-43.38-9.3-86.23-9.2-130.33"/>
    <path class="cls-1" d="M612.56,1225.86c.45-36.44,2.9-72.48,7.61-108.51"/>
    <path class="cls-1" d="M1501.47,1535.21c-.16-.09-.31-.17-.47-.26"/>
    <path class="cls-1" d="M1719.8,1622.76c-27.46.95-55.41-6.61-81.23-16.71"/>
    <path class="cls-1" d="M1605.17,1591.36c-35.5-17.03-69.25-37.05-103.88-56.26"/>
    <path class="cls-1" d="M1500.5,1534.67c-30.41-16.85-60.84-32.93-92.41-46.39"/>
    <path class="cls-1" d="M1880.05,1034.94c-9.79-43.82-22.83-84.82-40.81-124.53-18.02-39.8-39.46-75.2-66.18-108.32-27.03-33.5-56.73-61.12-90.48-85.08-33.59-23.84-68.38-42.1-105-57.38-36.14-15.07-72.35-26.46-109.55-35.46-39.09-9.46-78.36-15.94-118.71-19.91-75.52-7.43-157.23-5.92-232.11,4.93-39.58,5.74-77.99,14.04-116.24,25.58-38.15,11.51-75.13,25.72-111.77,44.77-35.09,18.25-67.54,39.84-98.16,67.22-30.95,27.68-57.19,58.61-80.4,94.67-22.82,35.47-40.65,72.69-55.15,113.81-14.45,40.96-24.51,82.68-31.53,126.31-7.24,44.97-10.87,89.8-11.38,135.53-.03,2.91-.05,5.82-.06,8.73"/>
    <path class="cls-1" d="M1057.69,1507.43c-35.97,17.83-72.19,38.62-107.71,57.58-25.57,13.65-49.84,26.47-76.63,36.66-46.56,17.71-99.99,26.8-145.48-4.32-4.89-3.34-9.56-7.04-14.02-11.03-24.14-21.61-42.26-52.06-55.65-83.38-1.09-2.55-2.15-5.11-3.18-7.67-10.3-25.61-18.07-51.67-24.14-79.03"/>
    <path class="cls-1" d="M1893.06,1119.89c.06.49.12.99.19,1.48,2.27,18.15,3.96,36.33,5.14,54.61"/>
    <path class="cls-1" d="M1637.55,1605.65c-10.61-4.19-21.06-8.87-31.42-13.82"/>
    <path class="cls-1" d="M1821.39,1564.29c-.19.26-.38.52-.58.77-26.5,35.37-59.11,55.84-99.75,57.64"/>
    <path class="cls-1" d="M1874.76,1445.21c-.1.37-.21.75-.31,1.12-4.88,17.72-10.76,35.75-17.83,53.19-9.4,23.19-20.89,45.33-34.92,64.33"/>
    <path class="cls-1" d="M1881.25,1419.34c-.09.39-.18.78-.27,1.17-1.86,8.08-3.87,16.1-6.05,24.07"/>
    <path class="cls-1" d="M1897.16,1313.63c-.04.44-.07.87-.11,1.31-3.03,35.26-7.87,69.48-15.66,103.74"/>
    <path class="cls-1" d="M620.22,1116.94c1.09-8.35,2.31-16.67,3.64-24.97"/>
    <path class="cls-1" d="M1093.48,1490.71c-11.94,5.2-23.83,10.8-35.79,16.73"/>
    <path class="cls-1" d="M1247.22,1514.55c-53.16,0-103.39-4.99-154.08-23.7"/>
    <path class="cls-1" d="M1231.85,1513.07c0,.19.47.37,1.31.5.84.13,1.97.21,3.16.23"/>
    <path class="cls-1" d="M612.51,1225.81c-.12,44.83,2.78,88.45,9.2,132.31,6.67,45.56,16.3,88.87,33.32,131.61,15.72,39.47,39.04,79.37,72.85,102.51,71.19,48.73,162.46-.36,222.11-32.47,36.23-19.5,71.59-40.24,107.72-59.09,36.97-19.28,73.69-36.05,113.37-46.85,37.51-10.21,73.77-14.07,112.78-10.09,38.94,3.97,74.58,15.02,110.4,30.33,36.36,15.54,71.03,34.77,106.26,54.81,34.64,19.7,68.9,40.14,104.67,57.35,34.9,16.78,75.38,32.78,114.63,31.42,41.36-1.43,74.33-22.06,101.01-57.76,25.37-33.95,42.36-78.14,53.65-119.85,11.93-44.1,18.73-88.21,22.61-134.07,2.16-25.54,3.27-50.93,3.33-76.4"/>
    <path class="cls-1" d="M1900.41,1229.57c.05-20.38-.56-40.81-1.85-61.4-2.82-45.24-8.7-89.31-18.51-133.24"/>
    <path class="cls-1" d="M1258.11,1513.8c1.19-.02,2.32-.1,3.16-.23.84-.13,1.31-.3,1.31-.5"/>
    <path class="cls-1" d="M1408.07,1488.24c-52.81,21.29-105.11,26.31-160.86,26.31"/>
    <path class="cls-1" d="M1247.22,1514.55c-53.16,0-103.39-4.99-154.08-23.7"/>
    <path class="cls-1" d="M1231.85,1513.07c0,.19.47.37,1.31.5.84.13,1.97.21,3.16.23"/>
    <path class="cls-1" d="M612.56,1225.86c.45-36.44,2.9-72.48,7.61-108.51"/>
    <path class="cls-1" d="M1880.05,1034.94c-9.79-43.82-22.83-84.82-40.81-124.53-18.02-39.8-39.46-75.2-66.18-108.32-27.03-33.5-56.73-61.12-90.48-85.08-33.59-23.84-68.38-42.1-105-57.38-36.14-15.07-72.35-26.46-109.55-35.46-39.09-9.46-78.36-15.94-118.71-19.91-75.52-7.43-157.23-5.92-232.11,4.93-39.58,5.74-77.99,14.04-116.24,25.58-38.15,11.51-75.13,25.72-111.77,44.77-35.09,18.25-67.54,39.84-98.16,67.22-30.95,27.68-57.19,58.61-80.4,94.67-22.82,35.47-40.65,72.69-55.15,113.81-14.45,40.96-24.51,82.68-31.53,126.31-7.24,44.97-10.87,89.8-11.38,135.53-.03,2.91-.05,5.82-.06,8.73"/>
    <path class="cls-1" d="M1501.47,1535.21c-.16-.09-.31-.17-.47-.26"/>
    <path class="cls-1" d="M630.87,1416.24s-.01-.06-.02-.09c-3.66-16.54-6.63-33.21-9.17-50.18-6.49-43.38-9.3-86.23-9.2-130.33"/>
    <path class="cls-1" d="M1719.8,1622.76c-27.46.95-55.41-6.61-81.23-16.71"/>
    <path class="cls-1" d="M1605.17,1591.36c-35.5-17.03-69.25-37.05-103.88-56.26"/>
    <path class="cls-1" d="M1500.5,1534.67c-30.41-16.85-60.84-32.93-92.41-46.39"/>
    <path class="cls-1" d="M1900.35,1229.74c.22,27.71-.81,55.37-3.13,83.17"/>
    <path class="cls-1" d="M1057.69,1507.43c-35.97,17.83-72.19,38.62-107.71,57.58-25.57,13.65-49.84,26.47-76.63,36.66-46.56,17.71-99.99,26.8-145.48-4.32-4.89-3.34-9.56-7.04-14.02-11.03-24.14-21.61-42.26-52.06-55.65-83.38-1.09-2.55-2.15-5.11-3.18-7.67-10.3-25.61-18.07-51.67-24.14-79.03"/>
    <path class="cls-1" d="M1637.55,1605.65c-10.61-4.19-21.06-8.87-31.42-13.82"/>
    <path class="cls-1" d="M1821.39,1564.29c-.19.26-.38.52-.58.77-26.5,35.37-59.11,55.84-99.75,57.64"/>
    <path class="cls-1" d="M1874.76,1445.21c-.1.37-.21.75-.31,1.12-4.88,17.72-10.76,35.75-17.83,53.19-9.4,23.19-20.89,45.33-34.92,64.33"/>
    <path class="cls-1" d="M1881.25,1419.34c-.09.39-.18.78-.27,1.17-1.86,8.08-3.87,16.1-6.05,24.07"/>
    <path class="cls-1" d="M1897.16,1313.63c-.04.44-.07.87-.11,1.31-3.03,35.26-7.87,69.48-15.66,103.74"/>
    <path class="cls-1" d="M1093.48,1490.71c-11.94,5.2-23.83,10.8-35.79,16.73"/>
    <path class="cls-1" d="M1900.41,1229.57c.05-20.38-.56-40.81-1.85-61.4-2.82-45.24-8.7-89.31-18.51-133.24"/>
    <line class="cls-1" x1="1262.55" y1="1515.06" x2="1262.56" y2="1513.03"/>
    <line class="cls-1" x1="1261.52" y1="1515.06" x2="1261.53" y2="1513.53"/>
    <line class="cls-1" x1="1232.86" y1="1513.52" x2="1232.86" y2="1515"/>
    <path class="cls-1" d="M1261.52,1515.06c.34,0,.69,0,1.03,0"/>
    <line class="cls-1" x1="1231.83" y1="1512.71" x2="1231.83" y2="1515"/>
    <line class="cls-1" x1="1236.3" y1="1514.35" x2="1236.29" y2="1515.01"/>
    <line class="cls-3" x1="1236.35" y1="1488.85" x2="1236.3" y2="1514.35"/>
    <line class="cls-3" x1="1262.56" y1="1510.42" x2="1262.29" y2="1510.42"/>
    <line class="cls-3" x1="1258.09" y1="1514.1" x2="1258.14" y2="1488.9"/>
    <line class="cls-3" x1="1261.57" y1="1493.51" x2="1262.6" y2="1493.51"/>
    <line class="cls-3" x1="1237.38" y1="1498.86" x2="1237.36" y2="1504.42"/>
    <line class="cls-3" x1="1231.87" y1="1493.45" x2="1232.9" y2="1493.45"/>
    <line class="cls-3" x1="1257.06" y1="1504.46" x2="1257.07" y2="1498.9"/>
    <line class="cls-3" x1="1258.01" y1="1511.61" x2="1258.01" y2="1511.1"/>
    <line class="cls-3" x1="1244.15" y1="1488.28" x2="1244.15" y2="1487.87"/>
    <line class="cls-3" x1="1237.09" y1="1504.42" x2="1257.33" y2="1504.46"/>
    <line class="cls-3" x1="1249.47" y1="1492.35" x2="1249.47" y2="1493.9"/>
    <line class="cls-3" x1="1257.9" y1="1489.07" x2="1257.9" y2="1487.9"/>
    <line class="cls-3" x1="1243.46" y1="1487.87" x2="1243.46" y2="1489.04"/>
    <line class="cls-3" x1="1232.86" y1="1511.91" x2="1231.83" y2="1511.91"/>
    <line class="cls-3" x1="1237.38" y1="1495.52" x2="1234.25" y2="1495.52"/>
    <line class="cls-3" x1="1260.21" y1="1495.57" x2="1255.82" y2="1495.56"/>
    <line class="cls-3" x1="1232.89" y1="1498.85" x2="1232.86" y2="1513.52"/>
    <line class="cls-3" x1="1261.53" y1="1513.53" x2="1261.56" y2="1498.9"/>
    <line class="cls-3" x1="1253.77" y1="1488.89" x2="1253.78" y2="1487.89"/>
    <line class="cls-3" x1="1250.34" y1="1488.88" x2="1250.34" y2="1487.88"/>
    <line class="cls-3" x1="1238.31" y1="1488.86" x2="1238.31" y2="1487.86"/>
    <line class="cls-3" x1="1261.57" y1="1491.65" x2="1261.58" y2="1488.9"/>
    <line class="cls-3" x1="1236.35" y1="1488.16" x2="1240.2" y2="1488.17"/>
    <line class="cls-3" x1="1236.33" y1="1498.85" x2="1258.12" y2="1498.9"/>
    <path class="cls-3" d="M1258.09,1511.96c1.03,0,2.05,0,3.08,0"/>
    <line class="cls-3" x1="1251.54" y1="1488.88" x2="1254.05" y2="1488.89"/>
    <line class="cls-3" x1="1231.88" y1="1488.84" x2="1231.83" y2="1512.71"/>
    <path class="cls-3" d="M1236.35,1488.85c-.74,0-1.49,0-2.23,0-.74,0-3.61.55-2.23,0"/>
    <line class="cls-3" x1="1262.56" y1="1513.03" x2="1262.61" y2="1488.91"/>
    <path class="cls-3" d="M1262.61,1488.91c-1.54,1.75-2.98,0-4.47,0"/>
    <path class="cls-3" d="M1238.64,1496.18c-.73,0-1.03-.3-1.03-1.03"/>
    <line class="cls-3" x1="1243.8" y1="1493.09" x2="1239.67" y2="1493.09"/>
    <line class="cls-3" x1="1238.64" y1="1492.05" x2="1243.8" y2="1492.06"/>
    <line class="cls-3" x1="1250.67" y1="1492.08" x2="1255.83" y2="1492.09"/>
    <line class="cls-3" x1="1254.8" y1="1493.12" x2="1250.67" y2="1493.11"/>
    <line class="cls-3" x1="1255.82" y1="1496.21" x2="1250.67" y2="1496.2"/>
    <line class="cls-3" x1="1256.86" y1="1493.12" x2="1256.85" y2="1495.18"/>
    <line class="cls-3" x1="1254.29" y1="1488.2" x2="1251.54" y2="1488.2"/>
    <line class="cls-3" x1="1258.14" y1="1488.9" x2="1254.29" y2="1488.89"/>
    <line class="cls-3" x1="1240.2" y1="1488.86" x2="1236.35" y2="1488.85"/>
    <line class="cls-3" x1="1242.95" y1="1488.18" x2="1240.2" y2="1488.17"/>
    <line class="cls-3" x1="1251.54" y1="1488.88" x2="1242.95" y2="1488.87"/>
    <line class="cls-3" x1="1252.06" y1="1488.29" x2="1252.05" y2="1489.06"/>
    <line class="cls-3" x1="1236.59" y1="1488.52" x2="1236.59" y2="1489.02"/>
    <line class="cls-3" x1="1247.75" y1="1493.36" x2="1247.75" y2="1493.89"/>
    <line class="cls-3" x1="1232.35" y1="1510.88" x2="1231.84" y2="1510.87"/>
    <line class="cls-3" x1="1261.84" y1="1505.78" x2="1262.57" y2="1505.78"/>
    <line class="cls-3" x1="1245.18" y1="1487.87" x2="1245.18" y2="1489.04"/>
    <line class="cls-3" x1="1238.7" y1="1495.52" x2="1237.87" y2="1495.52"/>
    <line class="cls-3" x1="1262.56" y1="1510.94" x2="1261.53" y2="1510.93"/>
    <line class="cls-3" x1="1232.9" y1="1491.59" x2="1232.91" y2="1488.85"/>
    <path class="cls-3" d="M1259.17,1488.21c.57,0,2.08,1.09,1.72,0"/>
    <path class="cls-3" d="M1237.61,1493.08c0-.73.3-1.03,1.03-1.03"/>
    <path class="cls-3" d="M1255.83,1492.09c.73,0,1.03.3,1.03,1.03"/>
    <path class="cls-3" d="M1256.85,1495.18c0,.73-.3,1.03-1.03,1.03"/>
    <line class="cls-3" x1="1237.61" y1="1495.14" x2="1237.61" y2="1493.08"/>
    <line class="cls-3" x1="1236.81" y1="1513.46" x2="1257.58" y2="1513.5"/>
    <line class="cls-3" x1="1242.6" y1="1492.58" x2="1242.59" y2="1493.37"/>
    <line class="cls-3" x1="1246.03" y1="1492.34" x2="1246.03" y2="1493.89"/>
    <line class="cls-3" x1="1259.09" y1="1493.92" x2="1259.09" y2="1492.37"/>
    <line class="cls-3" x1="1239.16" y1="1493.44" x2="1239.16" y2="1493.88"/>
    <line class="cls-3" x1="1241.56" y1="1493.03" x2="1241.56" y2="1492.33"/>
    <line class="cls-3" x1="1240.88" y1="1493.25" x2="1240.87" y2="1493.88"/>
    <line class="cls-3" x1="1255.31" y1="1493.24" x2="1255.31" y2="1492.36"/>
    <line class="cls-3" x1="1254.62" y1="1493.21" x2="1254.62" y2="1493.91"/>
    <line class="cls-3" x1="1252.9" y1="1493.39" x2="1252.9" y2="1493.9"/>
    <line class="cls-3" x1="1251.19" y1="1493.38" x2="1251.19" y2="1493.9"/>
    <line class="cls-3" x1="1250.67" y1="1495.55" x2="1243.79" y2="1495.53"/>
    <line class="cls-3" x1="1243.07" y1="1488.18" x2="1242.95" y2="1488.18"/>
    <line class="cls-3" x1="1257.62" y1="1511.96" x2="1255" y2="1511.95"/>
    <line class="cls-3" x1="1243.07" y1="1488.18" x2="1242.95" y2="1488.18"/>
    <line class="cls-3" x1="1258.69" y1="1511.65" x2="1258.69" y2="1511.29"/>
    <line class="cls-3" x1="1257.95" y1="1513.48" x2="1258.11" y2="1512.75"/>
    <line class="cls-3" x1="1239.16" y1="1492.33" x2="1239.16" y2="1493.36"/>
    <line class="cls-3" x1="1245" y1="1493.37" x2="1245" y2="1492.34"/>
    <line class="cls-3" x1="1244.31" y1="1492.34" x2="1244.31" y2="1493.37"/>
    <line class="cls-3" x1="1248.44" y1="1493.38" x2="1248.44" y2="1492.35"/>
    <line class="cls-3" x1="1236.41" y1="1492.32" x2="1235.38" y2="1492.32"/>
    <line class="cls-3" x1="1235.38" y1="1492.32" x2="1235.38" y2="1493.35"/>
    <line class="cls-3" x1="1259.09" y1="1492.37" x2="1258.06" y2="1492.37"/>
    <path class="cls-3" d="M1237.36,1504.42c-.34,0-.67.15-1.03,0"/>
    <path class="cls-3" d="M1258.09,1504.47c.5.06-.5,0-.76,0"/>
    <line class="cls-3" x1="1239.84" y1="1493.88" x2="1239.84" y2="1493.46"/>
    <line class="cls-3" x1="1241.56" y1="1493.88" x2="1241.56" y2="1493.38"/>
    <line class="cls-3" x1="1253.59" y1="1493.91" x2="1253.59" y2="1493.42"/>
    <line class="cls-3" x1="1250.15" y1="1493.9" x2="1250.16" y2="1492.92"/>
    <line class="cls-3" x1="1235.38" y1="1493.87" x2="1236.41" y2="1493.87"/>
    <line class="cls-3" x1="1258.06" y1="1493.91" x2="1259.09" y2="1493.92"/>
    <line class="cls-3" x1="1234.25" y1="1494.14" x2="1232.9" y2="1494.14"/>
    <line class="cls-3" x1="1249.3" y1="1489.05" x2="1249.31" y2="1488.8"/>
    <line class="cls-3" x1="1238.99" y1="1489.03" x2="1238.99" y2="1488.86"/>
    <line class="cls-3" x1="1232.9" y1="1491.59" x2="1232.03" y2="1491.59"/>
    <line class="cls-3" x1="1232.9" y1="1492.28" x2="1232.9" y2="1493.45"/>
    <line class="cls-3" x1="1234.25" y1="1494.14" x2="1234.25" y2="1495.52"/>
    <path class="cls-3" d="M1232.89,1498.85c1.24-.74,2.29,0,3.44,0"/>
    <path class="cls-3" d="M1258.12,1498.9c1.15,0,2.29.06,3.44,0"/>
    <path class="cls-3" d="M1261.54,1504.75c-1.15-.07-2.29,0-3.44,0"/>
    <path class="cls-3" d="M1236.32,1504.7c-1.15,0-2.21,1.16-3.44,0"/>
    <path class="cls-3" d="M1260.21,1494.19c.45,0,.9,0,1.35,0"/>
    <line class="cls-3" x1="1260.21" y1="1495.57" x2="1260.21" y2="1494.19"/>
    <line class="cls-3" x1="1261.57" y1="1492.34" x2="1261.57" y2="1493.51"/>
    <line class="cls-3" x1="1261.57" y1="1491.65" x2="1262.56" y2="1491.65"/>
    <line class="cls-3" x1="1261.53" y1="1511.97" x2="1262.56" y2="1511.97"/>
    <line class="cls-3" x1="1257.21" y1="1488.89" x2="1257.21" y2="1488.7"/>
    <line class="cls-3" x1="1255.49" y1="1488.89" x2="1255.49" y2="1487.89"/>
    <line class="cls-3" x1="1248.62" y1="1488.88" x2="1248.62" y2="1487.88"/>
    <line class="cls-3" x1="1241.74" y1="1488.86" x2="1241.75" y2="1487.87"/>
    <path class="cls-3" d="M1233.6,1488.16c.6.23,1.15,0,1.72,0"/>
    <line class="cls-3" x1="1261.58" y1="1488.22" x2="1261.67" y2="1488.22"/>
    <path class="cls-3" d="M1232.86,1511.91c-.48,2.01,2.06,0,3.09,0"/>
    <line class="cls-3" x1="1239.39" y1="1511.92" x2="1236.3" y2="1511.91"/>
    <line class="cls-3" x1="1239.92" y1="1505.22" x2="1239.91" y2="1511.41"/>
    <line class="cls-3" x1="1254.48" y1="1511.44" x2="1254.5" y2="1505.25"/>
    <path class="cls-3" d="M1239.67,1493.09c-.49,0-.69.2-.69.69"/>
    <path class="cls-3" d="M1238.98,1494.46c0,.49.2.69.69.69"/>
    <path class="cls-3" d="M1254.79,1495.18c.49,0,.69-.2.69-.69"/>
    <path class="cls-3" d="M1255.48,1493.81c0-.49-.2-.69-.69-.69"/>
    <line class="cls-3" x1="1239.67" y1="1495.15" x2="1243.79" y2="1495.16"/>
    <line class="cls-3" x1="1243.79" y1="1496.19" x2="1238.64" y2="1496.18"/>
    <line class="cls-3" x1="1250.67" y1="1495.17" x2="1254.79" y2="1495.18"/>
    <line class="cls-3" x1="1231.85" y1="1505.72" x2="1232.88" y2="1505.72"/>
    <line class="cls-3" x1="1232.88" y1="1504.69" x2="1231.85" y2="1504.69"/>
    <line class="cls-3" x1="1262.57" y1="1504.75" x2="1261.54" y2="1504.75"/>
    <path class="cls-3" d="M1261.69,1505.66c-1.06.03-2.11.06-3.17.08"/>
    <path class="cls-3" d="M1456.74,661.17c-37.04-7.82-74-12.95-111.52-16.16"/>
    <path class="cls-3" d="M1343.93,644.9c-28.35-2.39-57.13-3.61-85.56-3.76"/>
    <path class="cls-3" d="M1257.17,641.14c-43.87-.18-89.11,2.18-132.78,7.49"/>
    <path class="cls-3" d="M1123.35,648.76c-37.02,4.54-73.27,11.12-109.54,20.86"/>
    <path class="cls-3" d="M1012.89,669.87c-36.37,9.82-71.17,22.32-105.45,39.62"/>
    <path class="cls-3" d="M906.69,709.87c-4.06,2.06-8.1,4.17-12.11,6.35"/>
    <path class="cls-3" d="M893.85,716.62c-28.51,15.56-54.92,33.88-79.89,56.24"/>
    <path class="cls-3" d="M813.4,773.36c-20.83,18.73-39.6,39.31-56.77,62.52"/>
    <path class="cls-3" d="M756.23,836.44c-6.6,8.96-12.88,18.19-18.88,27.7"/>
    <path class="cls-3" d="M737,864.69c-21.63,34.39-38.5,70.64-52.24,110.09"/>
    <path class="cls-3" d="M684.58,975.29c-13.63,39.26-23.2,78.97-29.9,120.55"/>
    <path class="cls-3" d="M654.61,1096.25c-1.27,7.89-2.43,15.81-3.47,23.75"/>
    <path class="cls-3" d="M651.09,1120.38c-4.54,34.63-6.89,69.27-7.29,104.29"/>
    <path class="cls-3" d="M643.79,1224.95c-.5,44.59,2.1,88,8.67,131.96"/>
    <path class="cls-3" d="M652.48,1357.05c2.39,16.01,5.21,31.86,8.7,47.6"/>
    <path class="cls-3" d="M661.19,1404.73c5.77,26.04,13.16,50.82,22.96,75.19.98,2.43,1.98,4.86,3.02,7.28,12.73,29.77,29.94,58.7,52.89,79.24,4.24,3.8,8.68,7.31,13.33,10.49,43.23,29.57,94,20.93,138.25,4.1,25.46-9.68,48.52-21.86,72.83-34.84,33.71-18,68.08-37.71,102.21-54.64"/>
    <path class="cls-3" d="M1066.82,1491.48c35.18-17.44,69.92-31.99,107.4-41.32"/>
    <path class="cls-3" d="M1174.55,1450.07c26.66-6.61,52.84-10.14,80.1-10"/>
    <path class="cls-3" d="M1255.12,1440.08c8.72.06,17.41.5,26.1,1.29"/>
    <path class="cls-3" d="M1281.72,1441.41c36.31,3.36,69.89,12.61,104.28,26.19"/>
    <path class="cls-3" d="M1386.64,1467.85c34.5,13.67,67.38,30.9,100.24,49.09"/>
    <path class="cls-3" d="M1487.63,1517.36c32.87,18.21,64.89,37.22,98.55,53.44"/>
    <path class="cls-3" d="M1587.1,1571.24c9.82,4.71,19.73,9.18,29.79,13.18"/>
    <path class="cls-3" d="M1617.87,1584.81c24.44,9.64,50.94,16.96,77.01,16.29"/>
    <path class="cls-3" d="M1696.03,1601.07c38.72-1.34,69.81-20.41,95.09-53.64.19-.25.38-.51.58-.76"/>
    <path class="cls-3" d="M1792.02,1546.24c13.41-17.9,24.42-38.82,33.42-60.78,6.78-16.52,12.42-33.62,17.11-50.45.1-.34.19-.69.29-1.03"/>
    <path class="cls-3" d="M1843,1433.41c2.08-7.56,4.01-15.16,5.8-22.82.09-.37.17-.74.26-1.1"/>
    <path class="cls-3" d="M1849.2,1408.87c7.49-32.51,12.17-64.96,15.11-98.38.04-.41.07-.83.11-1.24"/>
    <path class="cls-3" d="M1864.48,1308.55c3.67-42.7,4.11-85.01,1.54-127.79-.03-.46-.06-.91-.08-1.37"/>
    <path class="cls-3" d="M1865.89,1178.62c-1.08-17.36-2.64-34.62-4.75-51.84-.06-.47-.11-.94-.17-1.4"/>
    <path class="cls-3" d="M1860.86,1124.6c-2.98-23.81-6.97-47.26-12.07-70.56-.11-.48-.21-.96-.32-1.45"/>
    <path class="cls-3" d="M1467.44,1431.55c0,29.45-38.97,48.47-59.36,56.69"/>
    <path class="cls-3" d="M1093.14,1490.85c-21.76-8.03-66.14-27.55-66.14-59.3"/>
    <path class="cls-3" d="M1560.86,691.79c-33.77-13.3-67.69-22.87-102.72-30.32-.3-.06-.6-.13-.9-.19"/>
    <path class="cls-3" d="M1620.1,719.56c-18.83-10.45-38.06-19.37-57.79-27.2-.31-.12-.62-.25-.93-.37"/>
    <path class="cls-3" d="M1660.65,745.04c-12.71-8.99-25.72-17.18-39.11-24.68-.31-.17-.62-.34-.92-.52"/>
    <path class="cls-3" d="M623.93,1091.54c7.03-43.72,17.05-85.47,31.42-126.94"/>
    <path class="cls-3" d="M730.86,818.15c18.02-24.45,37.72-46.12,59.79-66.03"/>
    <path class="cls-3" d="M791.02,751.77c26.22-23.57,53.95-42.88,84.16-59.44"/>
    <path class="cls-3" d="M875.68,692.06c4.22-2.3,8.46-4.53,13-6.85"/>
    <path class="cls-3" d="M889.18,684.96c36.03-18.25,72.59-31.46,110.79-41.83"/>
    <path class="cls-3" d="M1000.94,642.87c38.13-10.3,76.23-17.26,115.13-22.07"/>
    <path class="cls-3" d="M1117.18,620.66c45.87-5.63,93.43-8.16,139.57-8.02"/>
    <path class="cls-3" d="M1257.99,612.64c29.87.12,60.13,1.37,89.95,3.85"/>
    <path class="cls-3" d="M1467.06,633.52c.31.07.63.13.94.2,36.85,7.78,72.52,17.75,108.03,31.62"/>
    <path class="cls-3" d="M1638.92,694.62c.32.18.65.36.97.54,14.11,7.83,27.81,16.38,41.19,25.77"/>
    <path class="cls-3" d="M1783.07,820.75c.26.35.52.71.78,1.06,21.48,29.25,39.23,60.49,54.45,94.57"/>
    <path class="cls-3" d="M1838.63,917.11c.2.44.39.88.59,1.32,8.13,18.39,15.26,36.98,21.53,55.93,7.32,22.11,13.49,44.7,18.74,68.01"/>
    <path class="cls-3" d="M1746.63,826.46c-25.22-31.76-52.95-57.87-84.56-80.41-.3-.22-.61-.43-.91-.65"/>
    <path class="cls-3" d="M1756.91,839.92c-2.97-4.05-6-8.03-9.09-11.95-.25-.32-.51-.65-.76-.97"/>
    <path class="cls-3" d="M1809.52,931.74c-14.38-32.53-31.15-62.33-51.45-90.23-.25-.34-.5-.68-.74-1.02"/>
    <path class="cls-3" d="M1848.3,1051.78c-4.93-22.21-10.73-43.74-17.63-64.81-5.91-18.05-12.62-35.76-20.29-53.27-.18-.42-.37-.84-.55-1.26"/>
    <path class="cls-3" d="M1879.68,1043.22c.11.51.23,1.02.34,1.53"/>
    <path class="cls-3" d="M1772.22,806.62c.27.34.55.68.82,1.03,3.26,4.11,6.46,8.28,9.6,12.51"/>
    <path class="cls-3" d="M1681.61,721.3c.32.22.63.45.95.67,33.35,23.59,62.61,50.88,89.2,84.08"/>
    <path class="cls-3" d="M1576.57,665.55c.33.13.65.26.98.39,20.76,8.17,41.01,17.48,60.82,28.39"/>
    <path class="cls-3" d="M1349.28,616.6c39.46,3.32,78.31,8.66,117.25,16.81"/>
    <path class="cls-3" d="M710.62,847.87c6.3-10.01,12.88-19.73,19.81-29.15"/>
    <path class="cls-3" d="M1283.82,1454.75c-9.16-.85-18.31-1.32-27.5-1.4"/>
    <path class="cls-3" d="M1034.44,1056.17c40.39.2,81.86-13.31,117.3-35.37,18.3-11.39,34.11-24.26,50.46-39.05,8-7.23,15.83-14.72,23.88-21.87,7.02-6.24,17.44-15.26,26.45-17.39.77-.18,1.54-.32,2.32-.41.77-.09,1.54-.14,2.32-.14.78,0,1.55.05,2.32.15.78.1,1.55.24,2.32.43,9.01,2.19,19.37,11.29,26.36,17.58,8.01,7.21,15.81,14.75,23.76,22.04,16.27,14.91,32.02,27.89,50.25,39.4,35.33,22.3,76.72,36.1,117.12,36.18,30.17.06,63.04-7.84,89.42-25.69,27.02-18.28,50.33-50.46,51.29-89.08,1-40.54-22.83-72.73-50.52-91.87-26.27-18.16-59.52-28.19-89.58-31.93-36.59-4.56-78.75-1.19-114.46,9.11-19,5.48-36.39,12.85-53.92,23-9.44,5.46-16.08,9.98-25.26,16-7.5,4.92-17.71,11.76-26.63,12.65-.77.08-1.54.11-2.32.11-.77,0-1.55-.05-2.32-.13-8.91-.94-19.09-7.86-26.56-12.83-9.15-6.08-15.77-10.65-25.18-16.17-17.48-10.27-34.83-17.77-53.8-23.38-35.66-10.55-77.8-14.21-114.41-9.9-30.07,3.54-63.38,13.33-89.74,31.31-27.79,18.95-51.78,50.97-50.99,91.52.76,38.63,23.91,70.97,50.83,89.44,26.29,18.03,59.11,26.16,89.29,26.31Z"/>
    <path class="cls-3" d="M655.46,964.26c14.41-41.49,32.11-79.63,54.79-115.8"/>
    <path class="cls-3" d="M1880.02,1044.75c5.45,24.55,9.73,49.24,12.93,74.31"/>
    <path class="cls-3" d="M1255.83,1453.35c-28.75-.2-56.34,3.48-84.43,10.43"/>
    <path class="cls-3" d="M730.43,818.72c.05-.07.1-.14.15-.21"/>
    <path class="cls-3" d="M1337.78,1061.46c-21.82-4.87-43.62-8.07-65.88-9.15-21.02-1.02-41.75-.09-62.63,2.64-45.24,5.9-82.18,18.07-125.65,32.96-36.27,12.42-85,29.69-123.86,30.27-47.03.7-85.65-22.75-106.42-73.51-9.49-23.2-14.76-50.44-15.33-76.08-.56-25.26,2.55-48.65,9.83-72.54,14.89-48.86,43.59-84.62,80.42-111.14,35-25.19,75.93-40.23,115.57-50.13,44-10.99,88.15-16.29,132.95-19.19,80.46-5.21,177.54-2.46,257.44,12.57,41.93,7.89,86.46,20.41,125.29,41.7,38.2,20.94,72.92,51.89,94.53,95.98,10.43,21.27,16.98,42.95,20.31,67.15,3.43,24.97,2.97,48.54-1.62,73.18-9.7,52-35.75,96.59-83.55,110.36-41.19,11.86-90.51-3.59-127.93-16.24-44.45-15.03-77.81-28.66-123.47-38.85Z"/>
    <path class="cls-3" d="M1247.22,1348.55c42.21,0,83.03,3.87,124.11,14.44,20.41,5.25,39.85,11.76,58.42,22.13,15.48,8.64,37.69,24.65,37.69,46.43"/>
    <path class="cls-3" d="M1027,1431.55c0-21.78,22.22-37.8,37.7-46.44,18.57-10.37,38-16.88,58.41-22.12,41.08-10.56,81.9-14.43,124.1-14.43"/>
    <path class="cls-3" d="M1262.58,1512.74c0-.2-.39-.4-1.1-.56"/>
    <path class="cls-3" d="M1232.14,1505.64c-36.49-1.05-71.68-5.26-106.9-15.71-24.02-7.13-83.98-28.79-74.22-65.75,4.1-15.54,14.22-22.64,26.47-30.45,19.45-12.4,40.11-19.05,62.1-24.45,35.6-8.74,70.99-12.04,107.49-12.05,36.49,0,71.88,3.27,107.47,11.98,21.98,5.38,42.64,12.01,62.09,24.33,12.29,7.78,22.44,14.87,26.69,30.36,10.14,36.95-49.82,58.78-73.88,65.95-35.22,10.49-70.4,14.71-106.89,15.78"/>
    <path class="cls-3" d="M1408.1,1488.28c-4.38-1.87-8.78-3.68-13.2-5.44"/>
    <path class="cls-3" d="M710.25,848.46c.04-.07.09-.14.13-.21"/>
    <path class="cls-3" d="M1394.23,1482.57c-36.25-14.37-71.63-24.18-109.87-27.78"/>
    <path class="cls-3" d="M1171.05,1463.86c-26.84,6.66-52.35,15.86-77.58,26.84"/>
    <path class="cls-3" d="M1257.98,1505.75c-8.37.17-16.74.14-25.11-.09"/>
    <path class="cls-3" d="M1233.27,1512.11s-.08.01-.11.02c-.84.16-1.31.39-1.31.6"/>
    <path class="cls-3" d="M1254.76,1511.96c-5.12.07-10.24.07-15.37,0"/>
  </g>
  <g>
    <path class="cls-4" d="M2336.36,928.86h-216.94c-26.5,0-48.07,21.56-48.07,48.07v543.95c0,26.51,21.56,48.07,48.07,48.07h216.94c26.51,0,48.07-21.56,48.07-48.07v-543.95c0-26.51-21.56-48.07-48.07-48.07ZM2337.52,1562.89h-219.26c-22.59,0-40.96-18.91-40.96-42.15v-543.67c0-23.24,18.38-42.15,40.96-42.15h219.26c22.59,0,40.97,18.91,40.97,42.15v543.67c0,23.24-18.38,42.15-40.97,42.15Z"/>
    <rect class="cls-4" x="2068.37" y="1106.89" width="1.79" height="24.56"/>
    <rect class="cls-4" x="2385.72" y="1123.93" width="1.79" height="48.46"/>
    <rect class="cls-4" x="2068.37" y="1139.76" width="1.79" height="48.46"/>
    <rect class="cls-4" x="2068.37" y="1201.92" width="1.79" height="48.46"/>
    <path class="cls-4" d="M2261.96,949.18h-68.13c-4.45,0-8.07,3.62-8.07,8.07s3.62,8.07,8.07,8.07h68.13c4.45,0,8.07-3.62,8.07-8.07s-3.62-8.07-8.07-8.07ZM2227.89,961.99c-2.61,0-4.73-2.12-4.73-4.73s2.12-4.73,4.73-4.73,4.73,2.12,4.73,4.73-2.12,4.73-4.73,4.73Z"/>
  </g>
  <g>
    <g>
      <path class="cls-2" d="M2119.68,689.98v.02c-21.34,21.34-34.54,50.82-34.54,83.36,0,32.54,13.2,62.02,34.54,83.36v.02"/>
      <path class="cls-2" d="M2145.37,719.17c-13.86,13.86-22.44,33.03-22.44,54.19s8.59,40.31,22.44,54.19v.02"/>
      <path class="cls-2" d="M2171.49,800.46c-6.94-6.94-11.22-16.51-11.22-27.1s4.28-20.16,11.22-27.1"/>
    </g>
    <g>
      <path class="cls-2" d="M2336.2,856.74v-.02c21.34-21.34,34.54-50.82,34.54-83.36,0-32.54-13.2-62.02-34.54-83.36v-.02"/>
      <path class="cls-2" d="M2310.51,827.55c13.86-13.86,22.44-33.03,22.44-54.19s-8.59-40.31-22.44-54.19v-.02"/>
      <path class="cls-2" d="M2284.39,746.27c6.94,6.94,11.22,16.51,11.22,27.1s-4.28,20.16-11.22,27.1"/>
    </g>
    <circle class="cls-2" cx="2227.94" cy="773.18" r="29.39"/>
  </g>
  <g>
    <g>
      <path class="cls-2" d="M1148.19,377.16v.02c-21.34,21.34-34.54,50.82-34.54,83.36,0,32.54,13.2,62.02,34.54,83.36v.02"/>
      <path class="cls-2" d="M1173.87,406.35c-13.86,13.86-22.44,33.03-22.44,54.19s8.59,40.31,22.44,54.19v.02"/>
      <path class="cls-2" d="M1199.99,487.64c-6.94-6.94-11.22-16.51-11.22-27.1s4.28-20.16,11.22-27.1"/>
    </g>
    <g>
      <path class="cls-2" d="M1364.7,543.92v-.02c21.34-21.34,34.54-50.82,34.54-83.36,0-32.54-13.2-62.02-34.54-83.36v-.02"/>
      <path class="cls-2" d="M1339.02,514.73c13.86-13.86,22.44-33.03,22.44-54.19s-8.59-40.31-22.44-54.19v-.02"/>
      <path class="cls-2" d="M1312.9,433.45c6.94,6.94,11.22,16.51,11.22,27.1s-4.28,20.16-11.22,27.1"/>
    </g>
    <circle class="cls-2" cx="1256.45" cy="460.36" r="29.39"/>
  </g>
</svg>